<mxfile host="app.diagrams.net" modified="2023-02-05T16:08:43.930Z" agent="5.0 (X11; Linux x86_64) AppleWebKit/537.36 (KHTML, like Gecko) Chrome/109.0.0.0 Safari/537.36" etag="4R_dfWBvIlcRFxp0-MU3" version="20.8.16" type="github">
  <diagram id="C5RBs43oDa-KdzZeNtuy" name="Page-1">
    <mxGraphModel dx="958" dy="534" grid="1" gridSize="10" guides="1" tooltips="1" connect="1" arrows="1" fold="1" page="1" pageScale="1" pageWidth="827" pageHeight="1169" math="0" shadow="0">
      <root>
        <mxCell id="WIyWlLk6GJQsqaUBKTNV-0" />
        <mxCell id="WIyWlLk6GJQsqaUBKTNV-1" parent="WIyWlLk6GJQsqaUBKTNV-0" />
        <mxCell id="4k8cigVpF-RVa-kA_0dl-2" value="" style="edgeStyle=orthogonalEdgeStyle;rounded=0;sketch=0;orthogonalLoop=1;jettySize=auto;html=1;" edge="1" parent="WIyWlLk6GJQsqaUBKTNV-1" source="4k8cigVpF-RVa-kA_0dl-0" target="4k8cigVpF-RVa-kA_0dl-1">
          <mxGeometry relative="1" as="geometry" />
        </mxCell>
        <mxCell id="4k8cigVpF-RVa-kA_0dl-0" value="start" style="ellipse;whiteSpace=wrap;html=1;rounded=0;shadow=0;glass=0;sketch=0;" vertex="1" parent="WIyWlLk6GJQsqaUBKTNV-1">
          <mxGeometry x="330" width="100" height="50" as="geometry" />
        </mxCell>
        <mxCell id="4k8cigVpF-RVa-kA_0dl-4" value="" style="edgeStyle=orthogonalEdgeStyle;rounded=0;sketch=0;orthogonalLoop=1;jettySize=auto;html=1;" edge="1" parent="WIyWlLk6GJQsqaUBKTNV-1" source="4k8cigVpF-RVa-kA_0dl-1" target="4k8cigVpF-RVa-kA_0dl-3">
          <mxGeometry relative="1" as="geometry" />
        </mxCell>
        <mxCell id="4k8cigVpF-RVa-kA_0dl-1" value="int ara [ 25 ]= {94, 30, 20, 20, 77, 99, 60, 49, 80, 72, 40, 1, 74, 30, 54, 98, 30, 66, 59,66, 54, 88, 30, 98, 12}&lt;br&gt;int i = 0;" style="whiteSpace=wrap;html=1;rounded=0;shadow=0;glass=0;sketch=0;" vertex="1" parent="WIyWlLk6GJQsqaUBKTNV-1">
          <mxGeometry x="280" y="90" width="200" height="80" as="geometry" />
        </mxCell>
        <mxCell id="4k8cigVpF-RVa-kA_0dl-6" value="" style="edgeStyle=orthogonalEdgeStyle;rounded=0;sketch=0;orthogonalLoop=1;jettySize=auto;html=1;" edge="1" parent="WIyWlLk6GJQsqaUBKTNV-1" source="4k8cigVpF-RVa-kA_0dl-3" target="4k8cigVpF-RVa-kA_0dl-5">
          <mxGeometry relative="1" as="geometry" />
        </mxCell>
        <mxCell id="4k8cigVpF-RVa-kA_0dl-3" value="max = ara[0]" style="whiteSpace=wrap;html=1;rounded=0;shadow=0;glass=0;sketch=0;" vertex="1" parent="WIyWlLk6GJQsqaUBKTNV-1">
          <mxGeometry x="320" y="210" width="120" height="60" as="geometry" />
        </mxCell>
        <mxCell id="4k8cigVpF-RVa-kA_0dl-8" value="" style="edgeStyle=orthogonalEdgeStyle;rounded=0;sketch=0;orthogonalLoop=1;jettySize=auto;html=1;" edge="1" parent="WIyWlLk6GJQsqaUBKTNV-1" source="4k8cigVpF-RVa-kA_0dl-5" target="4k8cigVpF-RVa-kA_0dl-7">
          <mxGeometry relative="1" as="geometry" />
        </mxCell>
        <mxCell id="4k8cigVpF-RVa-kA_0dl-13" style="edgeStyle=orthogonalEdgeStyle;rounded=0;sketch=0;orthogonalLoop=1;jettySize=auto;html=1;entryX=0.5;entryY=0;entryDx=0;entryDy=0;exitX=1;exitY=0.5;exitDx=0;exitDy=0;" edge="1" parent="WIyWlLk6GJQsqaUBKTNV-1" source="4k8cigVpF-RVa-kA_0dl-5" target="4k8cigVpF-RVa-kA_0dl-12">
          <mxGeometry relative="1" as="geometry">
            <Array as="points">
              <mxPoint x="490" y="350" />
            </Array>
          </mxGeometry>
        </mxCell>
        <mxCell id="4k8cigVpF-RVa-kA_0dl-5" value="i &amp;lt; 25" style="rhombus;whiteSpace=wrap;html=1;rounded=0;shadow=0;glass=0;sketch=0;" vertex="1" parent="WIyWlLk6GJQsqaUBKTNV-1">
          <mxGeometry x="320" y="310" width="120" height="80" as="geometry" />
        </mxCell>
        <mxCell id="4k8cigVpF-RVa-kA_0dl-7" value="end" style="ellipse;whiteSpace=wrap;html=1;rounded=0;shadow=0;glass=0;sketch=0;" vertex="1" parent="WIyWlLk6GJQsqaUBKTNV-1">
          <mxGeometry x="170" y="330" width="80" height="40" as="geometry" />
        </mxCell>
        <mxCell id="4k8cigVpF-RVa-kA_0dl-9" value="no" style="text;html=1;align=center;verticalAlign=middle;resizable=0;points=[];autosize=1;strokeColor=none;fillColor=none;" vertex="1" parent="WIyWlLk6GJQsqaUBKTNV-1">
          <mxGeometry x="280" y="325" width="40" height="30" as="geometry" />
        </mxCell>
        <mxCell id="4k8cigVpF-RVa-kA_0dl-15" value="" style="edgeStyle=orthogonalEdgeStyle;rounded=0;sketch=0;orthogonalLoop=1;jettySize=auto;html=1;" edge="1" parent="WIyWlLk6GJQsqaUBKTNV-1" source="4k8cigVpF-RVa-kA_0dl-12" target="4k8cigVpF-RVa-kA_0dl-14">
          <mxGeometry relative="1" as="geometry" />
        </mxCell>
        <mxCell id="4k8cigVpF-RVa-kA_0dl-21" value="" style="edgeStyle=orthogonalEdgeStyle;rounded=0;sketch=0;orthogonalLoop=1;jettySize=auto;html=1;" edge="1" parent="WIyWlLk6GJQsqaUBKTNV-1" source="4k8cigVpF-RVa-kA_0dl-12" target="4k8cigVpF-RVa-kA_0dl-20">
          <mxGeometry relative="1" as="geometry" />
        </mxCell>
        <mxCell id="4k8cigVpF-RVa-kA_0dl-12" value="ara[ i] &amp;gt; max" style="rhombus;whiteSpace=wrap;html=1;rounded=0;shadow=0;glass=0;sketch=0;" vertex="1" parent="WIyWlLk6GJQsqaUBKTNV-1">
          <mxGeometry x="440" y="390" width="100" height="80" as="geometry" />
        </mxCell>
        <mxCell id="4k8cigVpF-RVa-kA_0dl-23" style="edgeStyle=orthogonalEdgeStyle;rounded=0;sketch=0;orthogonalLoop=1;jettySize=auto;html=1;exitX=0.5;exitY=1;exitDx=0;exitDy=0;entryX=0.5;entryY=1;entryDx=0;entryDy=0;" edge="1" parent="WIyWlLk6GJQsqaUBKTNV-1" source="4k8cigVpF-RVa-kA_0dl-14" target="4k8cigVpF-RVa-kA_0dl-20">
          <mxGeometry relative="1" as="geometry" />
        </mxCell>
        <mxCell id="4k8cigVpF-RVa-kA_0dl-14" value="max" style="whiteSpace=wrap;html=1;rounded=0;shadow=0;glass=0;sketch=0;" vertex="1" parent="WIyWlLk6GJQsqaUBKTNV-1">
          <mxGeometry x="590" y="400" width="120" height="60" as="geometry" />
        </mxCell>
        <mxCell id="4k8cigVpF-RVa-kA_0dl-16" value="yes" style="text;html=1;align=center;verticalAlign=middle;resizable=0;points=[];autosize=1;strokeColor=none;fillColor=none;" vertex="1" parent="WIyWlLk6GJQsqaUBKTNV-1">
          <mxGeometry x="440" y="325" width="40" height="30" as="geometry" />
        </mxCell>
        <mxCell id="4k8cigVpF-RVa-kA_0dl-19" value="yes" style="text;html=1;align=center;verticalAlign=middle;resizable=0;points=[];autosize=1;strokeColor=none;fillColor=none;" vertex="1" parent="WIyWlLk6GJQsqaUBKTNV-1">
          <mxGeometry x="540" y="395" width="40" height="30" as="geometry" />
        </mxCell>
        <mxCell id="4k8cigVpF-RVa-kA_0dl-22" value="" style="edgeStyle=orthogonalEdgeStyle;rounded=0;sketch=0;orthogonalLoop=1;jettySize=auto;html=1;" edge="1" parent="WIyWlLk6GJQsqaUBKTNV-1" source="4k8cigVpF-RVa-kA_0dl-20" target="4k8cigVpF-RVa-kA_0dl-5">
          <mxGeometry relative="1" as="geometry" />
        </mxCell>
        <mxCell id="4k8cigVpF-RVa-kA_0dl-20" value="i++" style="whiteSpace=wrap;html=1;rounded=0;shadow=0;glass=0;sketch=0;" vertex="1" parent="WIyWlLk6GJQsqaUBKTNV-1">
          <mxGeometry x="310" y="460" width="80" height="50" as="geometry" />
        </mxCell>
        <mxCell id="4k8cigVpF-RVa-kA_0dl-24" value="no" style="text;html=1;align=center;verticalAlign=middle;resizable=0;points=[];autosize=1;strokeColor=none;fillColor=none;" vertex="1" parent="WIyWlLk6GJQsqaUBKTNV-1">
          <mxGeometry x="410" y="395" width="40" height="30" as="geometry" />
        </mxCell>
      </root>
    </mxGraphModel>
  </diagram>
</mxfile>
